name GIL04_xslow1.mot
datacolumns 153
datarows 4
range 1.55833340 1.58333337
endheader

                time	           pelvis_tx	           pelvis_ty	           pelvis_tz	         pelvis_tilt	         pelvis_list	     pelvis_rotation	       hip_flexion_r	     hip_adduction_r	      hip_rotation_r	        knee_angle_r	       ankle_angle_r	    subtalar_angle_r	         mtp_angle_r	       hip_flexion_l	     hip_adduction_l	      hip_rotation_l	        knee_angle_l	       ankle_angle_l	    subtalar_angle_l	         mtp_angle_l	    lumbar_extension	      lumbar_bending	     lumbar_rotation	     ground_force_vx	     ground_force_vy	     ground_force_vz	     ground_force_px	     ground_force_py	     ground_force_pz	     ground_force_vx	     ground_force_vy	     ground_force_vz	     ground_force_px	     ground_force_py	     ground_force_pz	     ground_torque_x	     ground_torque_y	     ground_torque_z	     ground_torque_x	     ground_torque_y	     ground_torque_z	    ground_marker_px	    ground_marker_py	    ground_marker_pz	    ground_marker_px	    ground_marker_py	    ground_marker_pz	    ground_marker_px	    ground_marker_py	    ground_marker_pz	    ground_marker_px	    ground_marker_py	    ground_marker_pz	    ground_marker_px	    ground_marker_py	    ground_marker_pz	    ground_marker_px	    ground_marker_py	    ground_marker_pz	    ground_marker_px	    ground_marker_py	    ground_marker_pz	    ground_marker_px	    ground_marker_py	    ground_marker_pz	    ground_marker_px	    ground_marker_py	    ground_marker_pz	    ground_marker_px	    ground_marker_py	    ground_marker_pz	    ground_marker_px	    ground_marker_py	    ground_marker_pz	    ground_marker_px	    ground_marker_py	    ground_marker_pz	    ground_marker_px	    ground_marker_py	    ground_marker_pz	    ground_marker_px	    ground_marker_py	    ground_marker_pz	    ground_marker_px	    ground_marker_py	    ground_marker_pz	    ground_marker_px	    ground_marker_py	    ground_marker_pz	    ground_marker_px	    ground_marker_py	    ground_marker_pz	    ground_marker_px	    ground_marker_py	    ground_marker_pz	    ground_marker_px	    ground_marker_py	    ground_marker_pz	    ground_marker_px	    ground_marker_py	    ground_marker_pz	    ground_marker_px	    ground_marker_py	    ground_marker_pz	    ground_marker_px	    ground_marker_py	    ground_marker_pz	    ground_marker_px	    ground_marker_py	    ground_marker_pz	    ground_marker_px	    ground_marker_py	    ground_marker_pz	    ground_marker_px	    ground_marker_py	    ground_marker_pz	    ground_marker_px	    ground_marker_py	    ground_marker_pz	    ground_marker_px	    ground_marker_py	    ground_marker_pz	    ground_marker_px	    ground_marker_py	    ground_marker_pz	    ground_marker_px	    ground_marker_py	    ground_marker_pz	    ground_marker_px	    ground_marker_py	    ground_marker_pz	    ground_marker_px	    ground_marker_py	    ground_marker_pz	    ground_marker_px	    ground_marker_py	    ground_marker_pz	    ground_marker_px	    ground_marker_py	    ground_marker_pz	    ground_marker_px	    ground_marker_py	    ground_marker_pz	    ground_marker_px	    ground_marker_py	    ground_marker_pz	    ground_marker_px	    ground_marker_py	    ground_marker_pz	    ground_marker_px	    ground_marker_py	    ground_marker_pz	
          1.55833340	          1.40872574	          0.76040733	         -0.23557210	          0.48392391	         -0.68602943	         -2.85647726	         20.58308029	          1.50835538	          1.46216857	        -37.81902695	          4.50397062	          0.00000000	          0.00000000	         -3.05153561	          5.43912458	         -3.65020394	         -0.98321652	          3.09947276	          0.00000000	          0.00000000	        -22.15251732	          2.65481234	          4.47722864	          0.00000000	          0.00000000	          0.00000000	          0.98580688	          0.00000000	         -0.20915105	         -7.14066501	        310.04435840	          5.11323779	          1.36404443	          0.00000000	         -0.25082266	          0.00000000	          0.00000000	          0.00000000	          0.00000000	         -0.03742770	          0.00000000	          1.35376406	          0.68722391	         -0.23846155	          1.34292746	          0.69548434	         -0.17422628	          1.34877145	          0.69275808	         -0.29988983	          1.45920968	          0.39413366	         -0.17079487	          1.33341229	          0.38271314	         -0.26422045	          1.36558652	          0.08353357	         -0.14754815	          1.31152582	          0.06042836	         -0.25100064	          1.40872574	          0.76040733	         -0.23557210	          1.40429676	          0.76247346	         -0.14033614	          1.41315472	          0.75834113	         -0.33080807	          1.26082635	          0.79198080	         -0.22077797	          1.26300251	          0.78835201	         -0.27539194	          1.45854402	          0.39445180	         -0.12030026	          1.33232999	          0.37705278	         -0.31388724	          1.47229683	          0.38297376	         -0.21540324	          1.32678175	          0.38579553	         -0.20979887	          1.35664022	          0.08861631	         -0.11566743	          1.30862260	          0.05921627	         -0.28535688	          1.37285519	          0.08797128	         -0.17380141	          1.30538619	          0.06376607	         -0.22274788	          1.31082976	          1.14593077	         -0.23274238	          1.38564920	          1.09032559	         -0.17077979	          1.38439035	          1.09678674	         -0.30062091	          1.37843692	          1.08280420	         -0.23872495	          1.38454974	          0.93909609	         -0.24520841	          1.42851233	          0.47244418	         -0.04130613	          1.46904945	          0.47265211	         -0.30962381	          1.44287574	          0.54148102	         -0.10681785	          1.40518153	          0.53929752	         -0.26039064	          1.48274267	          0.46799356	         -0.11869399	          1.38443911	          0.45481861	         -0.24392898	          1.36512434	          0.19617802	         -0.05210653	          1.40473080	          0.15176399	         -0.28686160	          1.39945376	          0.23937917	         -0.11231938	          1.34401488	          0.21108297	         -0.27290815	          1.45054793	          0.04982356	         -0.12003530	          1.40393007	          0.03904717	         -0.25674403	
          1.56666672	          1.41237533	          0.76017100	         -0.23563065	          0.50154972	         -0.72699445	         -2.87323236	         21.01312637	          1.56295097	          1.09328365	        -36.36428833	          4.57294512	          0.00000000	          0.00000000	         -3.48123074	          5.39232922	         -3.57262397	         -0.82269567	          3.31381702	          0.00000000	          0.00000000	        -22.17772865	          2.87766433	          4.41785383	          0.00000000	          0.00000000	          0.00000000	          0.98632159	          0.00000000	         -0.20952878	         -7.26782114	        310.29331958	          5.24411396	          1.36726562	          0.00000000	         -0.25060330	          0.00000000	          0.00000000	          0.00000000	          0.00000000	         -0.02920117	          0.00000000	          1.35745955	          0.68695033	         -0.23847497	          1.34658849	          0.69527411	         -0.17424504	          1.35245144	          0.69245428	         -0.29990563	          1.46530223	          0.39466530	         -0.17078826	          1.33487058	          0.38258541	         -0.26437584	          1.38180459	          0.08067977	         -0.14675620	          1.31161809	          0.06042040	         -0.25101355	          1.41237533	          0.76017100	         -0.23563065	          1.40793252	          0.76230782	         -0.14040700	          1.41681814	          0.75803417	         -0.33085430	          1.26448679	          0.79167676	         -0.22088756	          1.26664591	          0.78806901	         -0.27548435	          1.46435022	          0.39486998	         -0.12029765	          1.33383298	          0.37694904	         -0.31404629	          1.47776926	          0.38362423	         -0.21549927	          1.32817078	          0.38571826	         -0.20989509	          1.37263930	          0.08555489	         -0.11490527	          1.30871630	          0.05920485	         -0.28536978	          1.38986003	          0.08546327	         -0.17301106	          1.30533016	          0.06384342	         -0.22276916	          1.31416011	          1.14561927	         -0.23222223	          1.38880908	          1.08979321	         -0.17016786	          1.38787806	          1.09658062	         -0.30000231	          1.38176513	          1.08252335	         -0.23810954	          1.38779640	          0.93875140	         -0.24498112	          1.43318260	          0.47264454	         -0.04126327	          1.47124279	          0.47177401	         -0.30954656	          1.44804192	          0.54157114	         -0.10664285	          1.40780318	          0.53870815	         -0.26038113	          1.48766601	          0.46863377	         -0.11846659	          1.38637042	          0.45423707	         -0.24392554	          1.37745690	          0.19358996	         -0.05159511	          1.40525472	          0.15130991	         -0.28691167	          1.41020119	          0.23776355	         -0.11184416	          1.34772944	          0.21198983	         -0.27436033	          1.46781552	          0.04995794	         -0.11950760	          1.40408540	          0.03897518	         -0.25672513	
          1.57500005	          1.41603327	          0.75990689	         -0.23569852	          0.51780224	         -0.76654333	         -2.87615800	         21.40243530	          1.59976661	          0.77816743	        -34.87152481	          4.59439993	          0.00000000	          0.00000000	         -3.90701485	          5.34975195	         -3.49795413	         -0.66592890	          3.52632785	          0.00000000	          0.00000000	        -22.24782372	          3.09972715	          4.34169149	          0.00000000	          0.00000000	          0.00000000	          0.98687012	          0.00000000	         -0.20990854	         -7.34343302	        310.57572374	          5.36353285	          1.37045776	          0.00000000	         -0.25039433	          0.00000000	          0.00000000	          0.00000000	          0.00000000	         -0.02909299	          0.00000000	          1.36116266	          0.68665218	         -0.23849165	          1.35027039	          0.69503343	         -0.17426260	          1.35612309	          0.69212902	         -0.29992175	          1.47118926	          0.39509070	         -0.17073913	          1.33634293	          0.38245809	         -0.26452741	          1.39793003	          0.07809065	         -0.14600872	          1.31171668	          0.06041611	         -0.25102779	          1.41603327	          0.75990689	         -0.23569852	          1.41159868	          0.76210767	         -0.14048420	          1.42046797	          0.75770611	         -0.33091283	          1.26815951	          0.79134929	         -0.22096047	          1.27028322	          0.78776526	         -0.27553740	          1.47000253	          0.39520532	         -0.12025321	          1.33533645	          0.37684485	         -0.31420112	          1.48233616	          0.38413405	         -0.21568799	          1.32982838	          0.38546833	         -0.21013813	          1.38859200	          0.08273230	         -0.11417308	          1.30881083	          0.05919816	         -0.28538364	          1.40590811	          0.08321331	         -0.17230943	          1.30548477	          0.06389262	         -0.22278064	          1.31753993	          1.14531100	         -0.23164000	          1.39199400	          1.08928084	         -0.16948220	          1.39140368	          1.09639502	         -0.29933429	          1.38508368	          1.08219838	         -0.23747844	          1.39108264	          0.93842804	         -0.24469177	          1.43782532	          0.47284305	         -0.04118367	          1.47343409	          0.47089568	         -0.30950433	          1.45366645	          0.54184312	         -0.10663974	          1.41034389	          0.53809732	         -0.26039156	          1.49245524	          0.46909925	         -0.11839557	          1.38842928	          0.45368496	         -0.24403055	          1.38982272	          0.19109040	         -0.05105444	          1.40577137	          0.15084839	         -0.28697270	          1.42098403	          0.23622742	         -0.11139930	          1.34859538	          0.21187149	         -0.27444562	          1.48492908	          0.05026956	         -0.11917483	          1.40424383	          0.03890170	         -0.25671718	
          1.58333337	          1.41969943	          0.75961894	         -0.23576853	          0.53463554	         -0.80410683	         -2.86695480	         21.74930954	          1.62068582	          0.52090323	        -33.34881973	          4.57871342	          0.00000000	          0.00000000	         -4.33055258	          5.31110144	         -3.43129587	         -0.51364166	          3.73899889	          0.00000000	          0.00000000	        -22.32162094	          3.29402447	          4.26657867	          0.00000000	          0.00000000	          0.00000000	          0.98742444	          0.00000000	         -0.21027756	         -7.38581111	        310.87264118	          5.46725647	          1.37361267	          0.00000000	         -0.25018155	          0.00000000	          0.00000000	          0.00000000	          0.00000000	         -0.03635663	          0.00000000	          1.36487603	          0.68633199	         -0.23850575	          1.35397303	          0.69476384	         -0.17427407	          1.35979044	          0.69178438	         -0.29993311	          1.47687185	          0.39541265	         -0.17065170	          1.33783340	          0.38232911	         -0.26467192	          1.41391361	          0.07578061	         -0.14530781	          1.31182146	          0.06041455	         -0.25104287	          1.41969943	          0.75961894	         -0.23576853	          1.41529179	          0.76187640	         -0.14055990	          1.42410719	          0.75736147	         -0.33097714	          1.27184033	          0.79099661	         -0.22099572	          1.27391636	          0.78744042	         -0.27555150	          1.47550321	          0.39546165	         -0.12017028	          1.33684182	          0.37673903	         -0.31434858	          1.48707950	          0.38433093	         -0.21551937	          1.33142805	          0.38537607	         -0.21048619	          1.40445125	          0.08016863	         -0.11347292	          1.30890429	          0.05919577	         -0.28539771	          1.42187238	          0.08136190	         -0.17199489	          1.30575585	          0.06389758	         -0.22279820	          1.32094669	          1.14498270	         -0.23097889	          1.39509404	          1.08884645	         -0.16877131	          1.39479506	          1.09623861	         -0.29862553	          1.38841724	          1.08185220	         -0.23682866	          1.39422417	          0.93815547	         -0.24431251	          1.44244754	          0.47303832	         -0.04107207	          1.47562456	          0.47001827	         -0.30950081	          1.45815444	          0.54217184	         -0.10669125	          1.41290355	          0.53754556	         -0.26045185	          1.49707460	          0.46942484	         -0.11834814	          1.39048886	          0.45331934	         -0.24422643	          1.40219307	          0.18870680	         -0.05048735	          1.40627527	          0.15038048	         -0.28704482	          1.43170512	          0.23478165	         -0.11095642	          1.34647989	          0.21067752	         -0.27303180	          1.50185502	          0.05078031	         -0.11901454	          1.40439844	          0.03882912	         -0.25672364	
